<svg width="13" height="13" viewBox="0 0 13 13" fill="none" xmlns="http://www.w3.org/2000/svg">
<path id="Vector" fill-rule="evenodd" clip-rule="evenodd" d="M7.19863 1.22411L8.31744 4.239L11.4108 4.41165C11.5634 4.41982 11.7103 4.47695 11.8327 4.57489C11.9545 4.67284 12.0449 4.80719 12.0933 4.96101C12.1416 5.11484 12.1448 5.27996 12.1027 5.43566C12.0617 5.5894 11.9763 5.72765 11.8572 5.83309L9.44881 7.87106L10.2537 11.0059C10.2914 11.1641 10.2832 11.3305 10.2298 11.483C10.1781 11.6342 10.0826 11.7666 9.95547 11.8635C9.82991 11.9577 9.67985 12.0104 9.52603 12.0142C9.37073 12.0172 9.21845 11.971 9.09094 11.8823L6.48163 10.1162L3.8786 11.8704C3.75189 11.9596 3.60032 12.0066 3.44539 12.0048C3.29045 12.0022 3.14024 11.951 3.01595 11.8585C2.88855 11.7632 2.7922 11.6323 2.73907 11.4824C2.68436 11.33 2.67413 11.1651 2.70956 11.0071L3.50818 7.8855L1.10606 5.83371C0.986915 5.72827 0.901523 5.59003 0.860571 5.43629C0.818397 5.28041 0.821665 5.11573 0.869989 4.96164C0.916816 4.81003 1.00748 4.67568 1.13054 4.57552C1.25297 4.47758 1.39989 4.42044 1.55245 4.41228L4.64582 4.23963L5.76464 1.22473C5.8224 1.07405 5.9216 0.944717 6.04968 0.854308C6.17541 0.763588 6.32649 0.714712 6.48153 0.7146C6.63657 0.714487 6.78772 0.763143 6.91359 0.85368C7.04166 0.944717 7.14024 1.07342 7.19863 1.22411Z" fill="#00EAAB" stroke="#00EAAB" stroke-width="0.941761" stroke-linecap="round" stroke-linejoin="round"/>
</svg>
