<svg width="26" height="26" viewBox="0 0 26 26" fill="none" xmlns="http://www.w3.org/2000/svg">
<g id="Frame">
<path id="Vector" d="M22.6201 14.7703V18.3141C22.6201 19.1711 22.2797 19.9929 21.6737 20.5989C21.0677 21.2048 20.2459 21.5452 19.3889 21.5452H6.46653C6.04203 21.5454 5.62166 21.4619 5.22945 21.2995C4.83723 21.1371 4.48086 20.899 4.18069 20.5989C3.88053 20.2987 3.64245 19.9423 3.48006 19.5501C3.31768 19.1579 3.23417 18.7375 3.23431 18.313V7.54256C3.2346 6.6858 3.57515 5.86422 4.18107 5.2585C4.787 4.65277 5.60869 4.3125 6.46545 4.3125H11.8507M17.5108 6.53236L20.4617 9.50475" stroke="#001E00" stroke-width="1.61719" stroke-linecap="round" stroke-linejoin="round"/>
<path id="Vector_2" d="M12.9268 16.5578L11.3215 16.8705C11.1481 16.9144 10.9666 16.9144 10.7932 16.8705C10.6243 16.8151 10.4696 16.7231 10.3404 16.601C10.2164 16.4776 10.1242 16.3259 10.0719 16.1589C10.0238 15.9865 10.0238 15.8042 10.0719 15.6317L10.3738 14.0059C10.4655 13.5962 10.6757 13.221 10.9776 12.9278L18.9147 4.99064C19.1114 4.78434 19.35 4.62258 19.6144 4.51627C19.8807 4.3912 20.1707 4.3222 20.4661 4.3125C20.7508 4.31466 21.0322 4.37287 21.2941 4.485C21.5604 4.59281 21.8019 4.75453 22.0057 4.95937C22.2085 5.15902 22.3697 5.39683 22.4801 5.65908C22.6946 6.19471 22.6946 6.79238 22.4801 7.32802C22.3698 7.59068 22.2086 7.82887 22.0057 8.0288L14.0028 15.9552C13.7117 16.257 13.3365 16.4662 12.9257 16.5589L12.9268 16.5578Z" stroke="#001E00" stroke-width="1.61719" stroke-linecap="round" stroke-linejoin="round"/>
</g>
</svg>
