<svg width="25" height="25" viewBox="0 0 25 25" fill="none" xmlns="http://www.w3.org/2000/svg">
<g id="Frame">
<path id="Vector" d="M12.401 21.2828V10.2866C12.401 9.75099 12.6138 9.23732 12.9925 8.85859C13.3712 8.47986 13.8849 8.26709 14.4205 8.26709H16.5208M9.50403 13.4471H15.7443" stroke="white" stroke-width="1.51463" stroke-linecap="round" stroke-linejoin="round"/>
<path id="Vector_2" d="M12.4111 21.2825C13.6046 21.2825 14.7863 21.0474 15.8889 20.5907C16.9915 20.134 17.9933 19.4646 18.8372 18.6207C19.681 17.7768 20.3504 16.775 20.8071 15.6724C21.2638 14.5699 21.4989 13.3881 21.4989 12.1947C21.4989 11.0013 21.2638 9.81954 20.8071 8.71696C20.3504 7.61439 19.681 6.61256 18.8372 5.76868C17.9933 4.9248 16.9915 4.2554 15.8889 3.7987C14.7863 3.342 13.6046 3.10693 12.4111 3.10693C10.0009 3.10693 7.6894 4.06439 5.98511 5.76868C4.28082 7.47297 3.32336 9.78448 3.32336 12.1947C3.32336 14.6049 4.28082 16.9164 5.98511 18.6207C7.6894 20.325 10.0009 21.2825 12.4111 21.2825Z" stroke="white" stroke-width="1.51463" stroke-linecap="round" stroke-linejoin="round"/>
</g>
</svg>
