<svg width="25" height="25" viewBox="0 0 25 25" fill="none" xmlns="http://www.w3.org/2000/svg">
<g id="Frame">
<path id="Vector" d="M16.3227 3.10693H8.24468C6.90567 3.10693 5.6215 3.63886 4.67467 4.58568C3.72784 5.53251 3.19592 6.81668 3.19592 8.15569V16.2337C3.19592 17.5727 3.72784 18.8569 4.67467 19.8037C5.6215 20.7506 6.90567 21.2825 8.24468 21.2825H16.3227C17.6617 21.2825 18.9459 20.7506 19.8927 19.8037C20.8395 18.8569 21.3715 17.5727 21.3715 16.2337V8.15569C21.3715 6.81668 20.8395 5.53251 19.8927 4.58568C18.9459 3.63886 17.6617 3.10693 16.3227 3.10693Z" stroke="white" stroke-width="1.51463" stroke-linecap="round" stroke-linejoin="round"/>
<path id="Vector_2" d="M12.2839 16.2338C13.3551 16.2338 14.3824 15.8082 15.1399 15.0508C15.8974 14.2933 16.3229 13.266 16.3229 12.1948C16.3229 11.1236 15.8974 10.0962 15.1399 9.33876C14.3824 8.5813 13.3551 8.15576 12.2839 8.15576C11.2127 8.15576 10.1853 8.5813 9.42787 9.33876C8.67041 10.0962 8.24487 11.1236 8.24487 12.1948C8.24487 13.266 8.67041 14.2933 9.42787 15.0508C10.1853 15.8082 11.2127 16.2338 12.2839 16.2338Z" stroke="white" stroke-width="1.51463" stroke-linecap="round" stroke-linejoin="round"/>
<path id="Vector_3" d="M17.6759 7.14579C17.7697 7.14579 17.8595 7.10856 17.9258 7.04228C17.9921 6.976 18.0293 6.88611 18.0293 6.79238C18.0293 6.69865 17.9921 6.60875 17.9258 6.54248C17.8595 6.4762 17.7697 6.43896 17.6759 6.43896C17.5822 6.43896 17.4923 6.4762 17.426 6.54248C17.3597 6.60875 17.3225 6.69865 17.3225 6.79238C17.3225 6.88611 17.3597 6.976 17.426 7.04228C17.4923 7.10856 17.5822 7.14579 17.6759 7.14579Z" fill="white" stroke="white" stroke-width="1.51463" stroke-linecap="round" stroke-linejoin="round"/>
</g>
</svg>
