<svg width="25" height="25" viewBox="0 0 25 25" fill="none" xmlns="http://www.w3.org/2000/svg">
<g id="Frame">
<path id="Vector" d="M8.01276 9.78139V17.8594M12.4254 9.78139V17.8594M19.948 3.10693H5.8115C5.27589 3.10693 4.76222 3.3197 4.38349 3.69843C4.00476 4.07716 3.79199 4.59083 3.79199 5.12644V19.263C3.79199 19.7986 4.00476 20.3122 4.38349 20.691C4.76222 21.0697 5.27589 21.2825 5.8115 21.2825H19.948C20.4836 21.2825 20.9973 21.0697 21.376 20.691C21.7548 20.3122 21.9675 19.7986 21.9675 19.263V5.12644C21.9675 4.59083 21.7548 4.07716 21.376 3.69843C20.9973 3.3197 20.4836 3.10693 19.948 3.10693Z" stroke="white" stroke-width="1.51463" stroke-linecap="round" stroke-linejoin="round"/>
<path id="Vector_2" d="M8.01262 7.2573C8.10903 7.2573 8.20149 7.219 8.26966 7.15083C8.33783 7.08265 8.37613 6.99019 8.37613 6.89378C8.37613 6.79738 8.33783 6.70491 8.26966 6.63674C8.20149 6.56857 8.10903 6.53027 8.01262 6.53027C7.91621 6.53027 7.82375 6.56857 7.75558 6.63674C7.68741 6.70491 7.64911 6.79738 7.64911 6.89378C7.64911 6.99019 7.68741 7.08265 7.75558 7.15083C7.82375 7.219 7.91621 7.2573 8.01262 7.2573Z" fill="white" stroke="white" stroke-width="1.51463" stroke-linecap="round" stroke-linejoin="round"/>
<path id="Vector_3" d="M12.4253 12.7095C12.4253 12.336 12.499 11.9662 12.6422 11.6213C12.7855 11.2764 12.9954 10.9632 13.2599 10.6996C13.5245 10.436 13.8384 10.2272 14.1839 10.0852C14.5293 9.94317 14.8993 9.87076 15.2728 9.87209C16.0253 9.87209 16.747 10.171 17.2791 10.7031C17.8113 11.2353 18.1102 11.957 18.1102 12.7095V17.8592" stroke="white" stroke-width="1.51463" stroke-linecap="round" stroke-linejoin="round"/>
</g>
</svg>
