<svg width="26" height="26" viewBox="0 0 26 26" fill="none" xmlns="http://www.w3.org/2000/svg">
<g id="Frame">
<path id="Vector" d="M21.5786 17.3729L13.9897 22.3086C13.6561 22.5253 13.2668 22.6407 12.869 22.6407C12.4712 22.6407 12.0819 22.5253 11.7483 22.3086L4.15937 17.3729C3.87372 17.1846 3.63954 16.9281 3.47802 16.6265C3.3165 16.325 3.23274 15.9879 3.23434 15.6457V5.29036C3.23434 4.74508 3.45095 4.22213 3.83652 3.83656C4.22209 3.45099 4.74504 3.23438 5.29032 3.23438H20.4477C20.9929 3.23466 21.5157 3.45136 21.9012 3.83687C22.2867 4.22238 22.5034 4.74517 22.5037 5.29036V15.6457C22.5053 15.9879 22.4215 16.325 22.26 16.6265C22.0985 16.9281 21.8643 17.1846 21.5786 17.3729Z" stroke="#001E00" stroke-width="1.61719" stroke-linecap="round" stroke-linejoin="round"/>
<path id="Vector_2" d="M12.8717 5.7464L14.3725 9.62334L18.5276 9.84974L15.2986 12.4814L16.3681 16.5029L12.8717 14.2388L9.37537 16.5029L10.4556 12.4814L7.21588 9.84866L11.3807 9.62226L12.8717 5.7464Z" stroke="#001E00" stroke-width="1.61719" stroke-linecap="round" stroke-linejoin="round"/>
</g>
</svg>
