<svg width="25" height="24" viewBox="0 0 25 24" fill="none" xmlns="http://www.w3.org/2000/svg">
<g id="tabler:dots-vertical">
<path id="Vector" d="M11.4054 12C11.4054 12.2652 11.5108 12.5196 11.6983 12.7071C11.8858 12.8946 12.1402 13 12.4054 13C12.6706 13 12.925 12.8946 13.1125 12.7071C13.3 12.5196 13.4054 12.2652 13.4054 12C13.4054 11.7348 13.3 11.4804 13.1125 11.2929C12.925 11.1054 12.6706 11 12.4054 11C12.1402 11 11.8858 11.1054 11.6983 11.2929C11.5108 11.4804 11.4054 11.7348 11.4054 12ZM11.4054 19C11.4054 19.2652 11.5108 19.5196 11.6983 19.7071C11.8858 19.8946 12.1402 20 12.4054 20C12.6706 20 12.925 19.8946 13.1125 19.7071C13.3 19.5196 13.4054 19.2652 13.4054 19C13.4054 18.7348 13.3 18.4804 13.1125 18.2929C12.925 18.1054 12.6706 18 12.4054 18C12.1402 18 11.8858 18.1054 11.6983 18.2929C11.5108 18.4804 11.4054 18.7348 11.4054 19ZM11.4054 5C11.4054 5.26522 11.5108 5.51957 11.6983 5.70711C11.8858 5.89464 12.1402 6 12.4054 6C12.6706 6 12.925 5.89464 13.1125 5.70711C13.3 5.51957 13.4054 5.26522 13.4054 5C13.4054 4.73478 13.3 4.48043 13.1125 4.29289C12.925 4.10536 12.6706 4 12.4054 4C12.1402 4 11.8858 4.10536 11.6983 4.29289C11.5108 4.48043 11.4054 4.73478 11.4054 5Z" stroke="black" stroke-width="2" stroke-linecap="round" stroke-linejoin="round"/>
</g>
</svg>
