<svg width="21" height="17" viewBox="0 0 21 17" fill="none" xmlns="http://www.w3.org/2000/svg">
<path id="Vector" d="M16.1618 3.29792C17.2788 3.34164 18.3929 3.15607 19.4354 2.75265C18.9649 4.37836 16.6 5.66276 16.6 5.66276C16.6 10.7973 10.695 18.3826 1.25989 14.0821C3.27401 13.9925 5.2323 13.3924 6.95085 12.3382C5.20383 11.1156 3.88167 9.37846 3.16855 7.36888C2.45544 5.35931 2.38688 3.17734 2.97243 1.12695C3.84582 2.36581 4.98052 3.39784 6.29641 4.15017C7.6123 4.90251 9.0773 5.35681 10.588 5.481C10.5773 5.32063 10.5773 5.15972 10.588 4.99935C10.587 4.34216 10.7976 3.70212 11.1887 3.17397C11.5798 2.64582 12.1306 2.25763 12.7595 2.06688C13.3884 1.87613 14.062 1.89294 14.6806 2.11484C15.2992 2.33674 15.8299 2.75192 16.1941 3.29893L16.1618 3.29792Z" stroke="white" stroke-width="1.51463" stroke-linecap="round" stroke-linejoin="round"/>
</svg>
