<svg width="93" height="140" viewBox="0 0 93 140" fill="none" xmlns="http://www.w3.org/2000/svg">
<g id="undraw_contract_re_ves9 1" clip-path="url(#clip0_2240_304)">
<path id="Vector" d="M20.0979 111.877C20.1682 111.956 20.2385 112.038 20.3066 112.12C21.257 113.222 22.1156 114.401 22.8738 115.644C22.9351 115.739 22.994 115.837 23.0485 115.932C24.8434 118.935 26.0653 122.244 26.6521 125.693C26.7837 126.473 26.8827 127.258 26.9492 128.047C26.9968 128.655 27.0256 129.263 27.0354 129.873C27.0717 132.431 26.8449 135.277 28.4936 137.232C28.9344 137.746 29.4723 138.169 30.0766 138.475C30.5318 138.71 31.0128 138.892 31.5099 139.017H36.6512C36.9098 138.978 37.1683 138.937 37.4268 138.897C37.4337 138.897 37.4405 138.894 37.4473 138.894L37.4994 138.912L37.8101 139.017L37.8237 139.021V139.017C37.8234 139.008 37.8241 138.998 37.826 138.99C37.8256 138.973 37.8264 138.956 37.8283 138.94V138.937C37.8305 138.892 37.8328 138.849 37.8328 138.804L37.8396 138.683C37.8396 138.683 37.8419 138.681 37.8396 138.681C37.8419 138.613 37.8464 138.545 37.8487 138.475C38.0868 132.556 37.5062 126.439 34.7122 121.227C33.7541 119.442 32.5203 117.818 31.0564 116.417C31.0479 116.408 31.0388 116.4 31.0291 116.392C28.124 113.621 24.3683 111.809 20.4041 111.87C20.302 111.87 20.2 111.872 20.0979 111.877Z" fill="#F0F0F0"/>
<path id="Vector_2" d="M20.0862 112.005C24.576 114.309 28.2256 117.97 30.5168 122.466C31.0272 123.425 31.3832 124.459 31.5718 125.529C31.7217 126.577 31.5882 127.647 31.1851 128.626C30.8277 129.547 30.3554 130.447 30.2279 131.438C30.1702 131.947 30.2206 132.462 30.3758 132.95C30.5311 133.437 30.7877 133.887 31.1288 134.268C31.954 135.241 33.0794 135.859 34.2011 136.425C35.4465 137.054 36.75 137.688 37.6146 138.825C37.7194 138.962 37.927 138.792 37.8224 138.654C36.318 136.676 33.6685 136.245 31.8642 134.637C31.0223 133.886 30.4014 132.877 30.4715 131.716C30.5327 130.7 31.019 129.771 31.389 128.842C31.7962 127.892 31.9648 126.857 31.8799 125.828C31.7464 124.751 31.4308 123.706 30.9465 122.735C29.8911 120.533 28.4961 118.511 26.8125 116.742C24.9022 114.713 22.6588 113.026 20.1795 111.753C20.026 111.675 19.9337 111.927 20.0862 112.005Z" fill="white"/>
<path id="Vector_3" d="M29.8646 120.975C30.5668 120.488 31.0732 119.767 31.2931 118.942C31.5131 118.116 31.4324 117.239 31.0655 116.467C30.9907 116.312 30.745 116.42 30.8199 116.577C31.1629 117.294 31.2379 118.111 31.0315 118.88C30.8251 119.648 30.3508 120.318 29.6942 120.767C29.5516 120.865 29.7229 121.072 29.8646 120.975Z" fill="white"/>
<path id="Vector_4" d="M31.4282 128.183C29.7067 127.887 28.1601 126.953 27.0967 125.568C26.9914 125.43 26.7838 125.601 26.8889 125.738C27.9982 127.178 29.6097 128.146 31.4017 128.45C31.5726 128.479 31.5981 128.212 31.4282 128.183Z" fill="white"/>
<path id="Vector_5" d="M24.7617 115.041C24.5292 115.286 24.2396 115.469 23.9187 115.574C23.5979 115.68 23.2559 115.704 22.9234 115.644C22.753 115.613 22.7277 115.881 22.897 115.912C23.2646 115.976 23.6423 115.949 23.997 115.833C24.3518 115.718 24.6728 115.517 24.9321 115.248C24.9586 115.225 24.9753 115.193 24.9788 115.158C24.9823 115.122 24.9723 115.087 24.9508 115.059C24.9281 115.032 24.8955 115.015 24.8601 115.011C24.8246 115.008 24.7893 115.018 24.7617 115.041Z" fill="white"/>
<path id="Vector_6" d="M7.57713 128.288C7.68145 128.31 7.78578 128.333 7.89237 128.358H7.89464C9.31591 128.667 10.7099 129.09 12.063 129.624C12.1673 129.664 12.2716 129.705 12.376 129.748H12.3782C15.6038 131.062 18.5593 132.959 21.096 135.345C21.105 135.355 21.1141 135.361 21.1232 135.37C21.1287 135.377 21.1347 135.383 21.1413 135.389L21.1527 135.4C22.1592 136.353 23.0924 137.381 23.9444 138.475C23.9444 138.477 23.9467 138.48 23.949 138.482C24.0851 138.659 24.2234 138.836 24.3595 139.017H37.8103L37.8239 139.022V139.017H37.8806C37.8806 139.015 37.8783 139.013 37.8761 139.01C37.8761 139.008 37.8738 139.008 37.8738 139.006C37.8579 138.983 37.8421 138.96 37.8285 138.94V138.938C37.8251 138.931 37.8205 138.925 37.8149 138.92C37.8012 138.897 37.7854 138.879 37.774 138.858C37.6833 138.731 37.5949 138.602 37.5042 138.475C37.3567 138.264 37.207 138.053 37.0551 137.845L37.0549 137.844L37.0545 137.843L37.0537 137.843L37.0528 137.842V137.84C37.0506 137.838 37.0506 137.836 37.0483 137.833L37.0438 137.829C35.1728 135.239 33.0682 132.781 30.6574 130.721C30.5848 130.658 30.5123 130.594 30.4351 130.535C29.3435 129.612 28.1777 128.78 26.9494 128.047C26.2781 127.651 25.5864 127.286 24.8743 126.954C23.0375 126.108 21.0791 125.555 19.0708 125.317H19.0662C19.0617 125.317 19.0572 125.315 19.0504 125.315C19.0436 125.315 19.039 125.312 19.0345 125.312C15.0407 124.85 10.9472 125.664 7.81527 128.1C7.73361 128.163 7.6565 128.224 7.57713 128.288Z" fill="#F0F0F0"/>
<path id="Vector_7" d="M37.8798 139.017H37.8231V139.022L37.8095 139.017H34.2103C35.283 138.833 36.3535 138.691 37.4262 138.897C37.4511 138.902 37.4738 138.906 37.4988 138.913C37.6076 138.933 37.7165 138.96 37.8253 138.99C37.8322 138.992 37.8412 138.995 37.848 138.997C37.8579 138.999 37.8672 139.004 37.8752 139.01C37.881 139.011 37.8865 139.014 37.8911 139.017H37.8798Z" fill="white"/>
<path id="Vector_8" d="M7.64279 128.399C7.7267 128.385 7.80836 128.37 7.89227 128.358H7.89454C9.64432 128.073 11.4204 127.983 13.19 128.091C13.2785 128.095 13.3692 128.102 13.4599 128.106C15.9163 128.278 18.3314 128.828 20.6196 129.737C20.6219 129.737 20.6219 129.737 20.6219 129.739C20.6469 129.748 20.6718 129.758 20.6945 129.767C21.2274 129.982 21.7536 130.218 22.2684 130.472C23.2535 130.931 24.1604 131.541 24.9558 132.282C25.5926 132.91 26.0747 133.678 26.3642 134.525C26.3937 134.611 26.4232 134.695 26.4504 134.781C26.4708 134.849 26.4912 134.919 26.5116 134.987C26.7792 135.938 26.9448 136.94 27.4392 137.809C27.5769 138.051 27.7445 138.275 27.9381 138.475C28.1382 138.683 28.3637 138.866 28.6094 139.017H29.1809C28.8681 138.882 28.5781 138.699 28.3214 138.475C28.1217 138.303 27.9469 138.104 27.802 137.883C27.2396 137.035 27.0672 136.001 26.8042 135.037C26.7611 134.881 26.7157 134.729 26.6658 134.577C26.404 133.745 25.9653 132.98 25.3799 132.334C24.6257 131.555 23.7445 130.91 22.7741 130.427C22.1618 130.105 21.5328 129.813 20.8872 129.551C20.8033 129.515 20.7194 129.483 20.6355 129.451C16.5592 127.865 12.1326 127.398 7.81514 128.1C7.73123 128.111 7.64959 128.127 7.56568 128.141C7.3956 128.17 7.4727 128.429 7.64279 128.399Z" fill="white"/>
<path id="Vector_9" d="M20.8491 129.673C21.1167 128.862 21.0871 127.982 20.7656 127.19C20.4442 126.398 19.8517 125.747 19.0942 125.351C18.9406 125.272 18.81 125.507 18.9637 125.586C19.6698 125.953 20.2216 126.56 20.5194 127.298C20.8173 128.036 20.8416 128.856 20.5879 129.61C20.533 129.774 20.7945 129.836 20.8491 129.673Z" fill="white"/>
<path id="Vector_10" d="M26.4371 134.487C24.8845 135.287 23.0873 135.472 21.4039 135.006C21.2372 134.96 21.1741 135.221 21.3407 135.267C23.0933 135.749 24.9631 135.552 26.577 134.716C26.7308 134.636 26.5901 134.407 26.4371 134.487Z" fill="white"/>
<path id="Vector_11" d="M13.202 128.007C13.1639 128.343 13.043 128.664 12.8503 128.941C12.6575 129.218 12.3989 129.444 12.0977 129.596C11.943 129.674 12.0839 129.903 12.2376 129.826C12.5696 129.655 12.8549 129.406 13.0686 129.101C13.2822 128.795 13.4177 128.441 13.4631 128.071C13.4703 128.036 13.4641 128 13.4458 127.97C13.4274 127.94 13.3982 127.918 13.3642 127.909C13.3296 127.9 13.2931 127.906 13.2627 127.925C13.2324 127.943 13.2105 127.973 13.202 128.007Z" fill="white"/>
<path id="Vector_12" d="M20.9571 37.9466C20.8958 30.4376 20.5904 22.856 20.0408 15.2019C20.0318 15.05 20.0204 14.9003 20.0091 14.7484C19.7188 10.7637 19.3635 6.76464 18.9432 2.75124V2.72856C18.9436 2.06705 19.2065 1.43275 19.6743 0.964997C20.142 0.497241 20.7763 0.234281 21.4379 0.233887H88.3405C88.9997 0.235182 89.6318 0.496875 90.099 0.961987C90.5663 1.4271 90.8309 2.05796 90.8351 2.71722C91.4157 8.24406 91.8708 13.7437 92.2004 19.2161C92.214 19.3953 92.2231 19.5721 92.2322 19.7513C92.3955 22.4569 92.5255 25.1557 92.6222 27.8477C92.629 28.0064 92.6359 28.1652 92.6381 28.3239C93.2573 44.8409 92.6547 61.3811 90.8351 77.8092C90.8304 78.4681 90.5656 79.0984 90.0984 79.5631C89.6312 80.0277 88.9994 80.2891 88.3405 80.2903H21.4379C20.7763 80.2899 20.142 80.0269 19.6743 79.5591C19.2065 79.0914 18.9436 78.4571 18.9432 77.7956V77.7706C19.272 74.8519 19.5608 71.9142 19.8095 68.9576C19.8458 68.5245 19.8813 68.0913 19.9161 67.6581C20.0885 65.5286 20.2389 63.3907 20.3674 61.2445C20.3946 60.8114 20.4196 60.3782 20.4422 59.945C20.6849 55.6497 20.8437 51.321 20.9185 46.9591C20.9276 46.526 20.9344 46.0951 20.9412 45.6596C20.9684 43.5301 20.9767 41.3922 20.9661 39.2461C20.9661 38.8129 20.9639 38.3797 20.9571 37.9466Z" fill="#F0F0F0"/>
<path id="Vector_13" d="M0.800186 17.2426C0.800583 16.5811 1.06355 15.9468 1.5313 15.479C1.99905 15.0113 2.63335 14.7483 3.29486 14.7479H70.1975C70.8568 14.7492 71.4888 15.0109 71.9561 15.476C72.4233 15.9411 72.6879 16.572 72.6922 17.2313C74.951 38.7694 75.3252 59.9265 73.8125 80.2898C73.6288 82.8095 73.4141 85.3162 73.1684 87.8101C73.0369 89.1459 72.897 90.4779 72.7489 91.8061C72.7307 91.9785 72.7126 92.1509 72.6922 92.3232C72.6874 92.9821 72.4226 93.6125 71.9554 94.0771C71.4882 94.5418 70.8564 94.8031 70.1975 94.8043H3.29486C2.63335 94.8039 1.99905 94.5409 1.5313 94.0732C1.06355 93.6054 0.800583 92.9711 0.800186 92.3096V92.2847C3.50578 68.2972 3.50578 43.0579 0.800186 17.2653V17.2426Z" fill="white"/>
<path id="Vector_14" d="M0.800186 17.2426C0.800583 16.5811 1.06355 15.9468 1.5313 15.479C1.99905 15.0113 2.63335 14.7483 3.29486 14.7479H70.1975C70.8568 14.7492 71.4888 15.0109 71.9561 15.476C72.4233 15.9411 72.6879 16.572 72.6922 17.2313C74.951 38.7694 75.3252 59.9265 73.8125 80.2898C73.6288 82.8095 73.4141 85.3162 73.1684 87.8101C73.0369 89.1459 72.897 90.4779 72.7489 91.8061C72.7307 91.9785 72.7126 92.1509 72.6922 92.3232C72.6874 92.9821 72.4226 93.6125 71.9554 94.0771C71.4882 94.5418 70.8564 94.8031 70.1975 94.8043H3.29486C2.63335 94.8039 1.99905 94.5409 1.5313 94.0732C1.06355 93.6054 0.800583 92.9711 0.800186 92.3096V92.2847C3.50578 68.2972 3.50578 43.0579 0.800186 17.2653V17.2426ZM1.25376 92.3232C1.2578 92.8621 1.47457 93.3775 1.85686 93.7572C2.23916 94.137 2.75601 94.3503 3.29486 94.3507H70.1975C70.7386 94.3499 71.2573 94.1346 71.6399 93.752C72.0225 93.3694 72.2378 92.8507 72.2386 92.3096V92.2847C72.2545 92.1395 72.2703 91.9921 72.2862 91.847C72.4427 90.459 72.5886 89.0673 72.7239 87.6718C72.9621 85.2247 73.173 82.7641 73.3567 80.2898C74.8693 59.9378 74.4974 38.7943 72.2386 17.2653V17.2426C72.2378 16.7015 72.0225 16.1828 71.6399 15.8002C71.2573 15.4176 70.7386 15.2023 70.1975 15.2015H3.29486C2.75555 15.2017 2.2382 15.4152 1.85578 15.7955C1.47337 16.1758 1.25694 16.692 1.25376 17.2313C3.95935 43.0443 3.95935 68.3109 1.25376 92.3232Z" fill="#E4E4E4"/>
<path id="Path 142" d="M65.5868 37.9464C65.7589 37.9469 65.9238 38.0156 66.0453 38.1374C66.1669 38.2593 66.2351 38.4244 66.2351 38.5965C66.2351 38.7686 66.1669 38.9337 66.0453 39.0555C65.9238 39.1774 65.7589 39.2461 65.5868 39.2465H11.2185C11.0464 39.2461 10.8815 39.1774 10.7599 39.0555C10.6384 38.9337 10.5701 38.7686 10.5701 38.5965C10.5701 38.4244 10.6384 38.2593 10.7599 38.1374C10.8815 38.0156 11.0464 37.9469 11.2185 37.9464H65.5868Z" fill="#E6E6E6"/>
<path id="Path 143" d="M65.5863 41.8474C65.7585 41.8477 65.9235 41.9164 66.0451 42.0382C66.1668 42.1601 66.2351 42.3253 66.2351 42.4975C66.2351 42.6697 66.1668 42.8348 66.0451 42.9567C65.9235 43.0786 65.7585 43.1472 65.5863 43.1475H28.6776C28.5054 43.1472 28.3404 43.0786 28.2187 42.9567C28.0971 42.8348 28.0288 42.6697 28.0288 42.4975C28.0288 42.3253 28.0971 42.1601 28.2187 42.0382C28.3404 41.9164 28.5054 41.8477 28.6776 41.8474H65.5863Z" fill="#E6E6E6"/>
<path id="Path 142_2" d="M65.5863 45.6599C65.7585 45.6602 65.9235 45.7289 66.0451 45.8507C66.1668 45.9726 66.2351 46.1378 66.2351 46.31C66.2351 46.4822 66.1668 46.6473 66.0451 46.7692C65.9235 46.8911 65.7585 46.9597 65.5863 46.96H11.218C11.0458 46.9597 10.8807 46.8911 10.7591 46.7692C10.6375 46.6473 10.5691 46.4822 10.5691 46.31C10.5691 46.1378 10.6375 45.9726 10.7591 45.8507C10.8807 45.7289 11.0458 45.6602 11.218 45.6599H65.5863Z" fill="#E6E6E6"/>
<path id="Path 143_2" d="M65.5868 49.5602C65.7589 49.5606 65.9238 49.6293 66.0453 49.7512C66.1669 49.873 66.2351 50.0381 66.2351 50.2102C66.2351 50.3823 66.1669 50.5474 66.0453 50.6693C65.9238 50.7911 65.7589 50.8598 65.5868 50.8603H28.6781C28.506 50.8598 28.3411 50.7911 28.2196 50.6693C28.098 50.5474 28.0298 50.3823 28.0298 50.2102C28.0298 50.0381 28.098 49.873 28.2196 49.7512C28.3411 49.6293 28.506 49.5606 28.6781 49.5602H65.5868Z" fill="#E6E6E6"/>
<path id="Path 142_3" d="M65.5868 59.9451C65.7589 59.9455 65.9238 60.0142 66.0453 60.1361C66.1669 60.2579 66.2351 60.423 66.2351 60.5951C66.2351 60.7672 66.1669 60.9323 66.0453 61.0542C65.9238 61.176 65.7589 61.2447 65.5868 61.2452H11.2185C11.0464 61.2447 10.8815 61.176 10.7599 61.0542C10.6384 60.9323 10.5701 60.7672 10.5701 60.5951C10.5701 60.423 10.6384 60.2579 10.7599 60.1361C10.8815 60.0142 11.0464 59.9455 11.2185 59.9451H65.5868Z" fill="#E6E6E6"/>
<path id="Path 143_3" d="M65.5863 63.8456C65.7585 63.8459 65.9235 63.9145 66.0451 64.0364C66.1668 64.1583 66.2351 64.3234 66.2351 64.4956C66.2351 64.6678 66.1668 64.833 66.0451 64.9549C65.9235 65.0767 65.7585 65.1454 65.5863 65.1457H28.6776C28.5054 65.1454 28.3404 65.0767 28.2187 64.9549C28.0971 64.833 28.0288 64.6678 28.0288 64.4956C28.0288 64.3234 28.0971 64.1583 28.2187 64.0364C28.3404 63.9145 28.5054 63.8459 28.6776 63.8456H65.5863Z" fill="#E6E6E6"/>
<path id="Path 142_4" d="M65.5863 67.658C65.7585 67.6583 65.9235 67.7269 66.0451 67.8488C66.1668 67.9707 66.2351 68.1358 66.2351 68.308C66.2351 68.4802 66.1668 68.6454 66.0451 68.7672C65.9235 68.8891 65.7585 68.9577 65.5863 68.9581H11.218C11.0458 68.9577 10.8807 68.8891 10.7591 68.7672C10.6375 68.6454 10.5691 68.4802 10.5691 68.308C10.5691 68.1358 10.6375 67.9707 10.7591 67.8488C10.8807 67.7269 11.0458 67.6583 11.218 67.658H65.5863Z" fill="#E6E6E6"/>
<path id="Path 143_4" d="M65.5868 71.5587C65.7589 71.5592 65.9238 71.6279 66.0453 71.7497C66.1669 71.8716 66.2351 72.0367 66.2351 72.2088C66.2351 72.3809 66.1669 72.546 66.0453 72.6678C65.9238 72.7897 65.7589 72.8584 65.5868 72.8588H28.6781C28.506 72.8584 28.3411 72.7897 28.2196 72.6678C28.098 72.546 28.0298 72.3809 28.0298 72.2088C28.0298 72.0367 28.098 71.8716 28.2196 71.7497C28.3411 71.6279 28.506 71.5592 28.6781 71.5587H65.5868Z" fill="#E6E6E6"/>
<path id="Path 154" d="M54.8282 29.8755H65.2124C65.3469 29.8753 65.4759 29.8218 65.571 29.7267C65.6661 29.6316 65.7196 29.5027 65.7197 29.3682V27.7044C65.7196 27.5699 65.6661 27.441 65.571 27.3459C65.4759 27.2508 65.3469 27.1973 65.2124 27.1971H54.8282C54.6937 27.1973 54.5648 27.2508 54.4697 27.3459C54.3746 27.441 54.3211 27.5699 54.3209 27.7044V29.3682C54.3211 29.5027 54.3746 29.6316 54.4697 29.7267C54.5648 29.8218 54.6937 29.8753 54.8282 29.8755Z" fill="#1AA7FF"/>
<path id="Vector_15" d="M18.7537 83.3916L21.9344 84.4428C22.4645 84.618 22.9946 84.7932 23.5248 84.9684C24.0157 85.13 24.547 85.3223 25.0726 85.2528C25.4359 85.2047 25.8499 84.9957 25.9631 84.6219C26.0702 84.2683 25.8432 83.8984 25.5682 83.6892C24.8092 83.1118 23.8494 83.6995 23.3116 84.2975C22.6538 85.0289 22.2815 85.9731 21.6645 86.7387C21.1153 87.4253 20.4189 87.9798 19.6269 88.3615C18.0527 89.1048 16.1326 89.0258 14.7285 87.9427C13.0519 86.6494 12.8809 84.4078 12.872 82.4521C12.875 82.3639 12.9122 82.2804 12.9757 82.2191C13.0391 82.1578 13.1239 82.1235 13.2122 82.1235C13.3004 82.1235 13.3852 82.1578 13.4486 82.2191C13.5121 82.2804 13.5493 82.3639 13.5523 82.4521C13.5604 84.2246 13.6612 86.3973 15.2773 87.5063C16.8254 88.5687 18.8599 88.2869 20.2851 87.1549C21.0794 86.5242 21.5679 85.7016 22.0894 84.8499C22.5984 84.0185 23.2304 83.2125 24.1884 82.8892C24.5992 82.7399 25.0489 82.737 25.4616 82.8811C25.8742 83.0252 26.2245 83.3074 26.4531 83.6799C26.5575 83.8557 26.6233 84.0517 26.6461 84.2549C26.6688 84.4581 26.648 84.6638 26.5851 84.8583C26.5221 85.0529 26.4184 85.2318 26.2809 85.3831C26.1434 85.5344 25.9753 85.6547 25.7876 85.7359C24.6769 86.2652 23.4062 85.645 22.3366 85.2916L18.5728 84.0477C18.159 83.911 18.3362 83.2537 18.7537 83.3916Z" fill="#1AA7FF"/>
<path id="Vector_16" d="M28.1789 133.398L30.4094 134.133L34.3052 125.88L31.0133 124.796L28.1789 133.398Z" fill="#9F616A"/>
<path id="Vector_17" d="M26.5882 135.273L26.7401 134.812L27.1393 133.599L27.4114 132.774L28.1553 133.019L28.3095 133.007L30.3529 132.869L30.625 132.851L31.0287 132.824L31.446 132.794L32.6117 134.488H32.614C33.0497 134.63 33.4529 134.857 33.8002 135.156C34.1474 135.455 34.4319 135.82 34.6369 136.23C34.6619 136.28 34.6846 136.33 34.7072 136.38C34.7635 136.502 34.8112 136.627 34.8501 136.756C35.0266 137.312 35.0594 137.903 34.9454 138.475C34.916 138.617 34.8789 138.757 34.8342 138.895L34.8274 138.917L34.8002 139.001L34.6369 138.947L33.2036 138.475L28.1825 136.822L27.1869 136.493L26.8808 136.391H26.8785L26.2843 136.196L26.5882 135.273Z" fill="#2F2E41"/>
<path id="Vector_18" d="M49.3208 135.338L51.669 135.338L52.7861 126.281L49.3204 126.281L49.3208 135.338Z" fill="#9F616A"/>
<path id="Vector_19" d="M53.0785 95.633L54.1195 97.4338C54.1195 97.4338 55.2634 97.7462 54.8895 101.475C54.6256 104.108 54.5399 115.896 53.8753 123.555C53.5987 126.742 53.2219 129.214 52.6901 130.013L52.3627 130.306L48.9457 130.633L48.8596 130.603L47.6048 121.741C47.3795 120.15 47.4133 118.533 47.7046 116.953L47.9314 114.458L44.7852 101.827C44.7852 101.827 41.5814 109.922 39.5403 117.633C39.0489 119.489 37.1826 120.67 36.475 122.263C36.238 122.796 36.005 123.313 35.7778 123.81C34.2812 127.077 33.531 129.455 32.9634 129.653H32.5098L29.7883 128.746L29.253 127.4L33.417 115.139L36.5351 95.3412C42.4764 92.1466 48.0495 91.7912 53.0785 95.633Z" fill="#2F2E41"/>
<path id="Vector_20" d="M36.059 68.9573C36.2641 68.5055 36.5053 68.0709 36.7802 67.6578C37.4085 66.6785 38.2818 65.8804 39.3134 65.3423L40.2069 65.145L41.8081 64.7912L42.6517 63.8455L44.0351 62.2965H48.7977L49.435 63.8455L49.9702 65.145L50.1992 65.6983L54.2769 67.7372C54.2792 67.7372 54.2792 67.7372 54.2814 67.7394C54.227 68.1477 54.1733 68.5536 54.1204 68.9573C54.0048 69.835 53.8959 70.702 53.7938 71.5586C53.7417 71.994 53.6918 72.4272 53.6442 72.8581C53.4922 74.2097 53.3614 75.5379 53.2518 76.8427C53.1543 78.0084 53.0764 79.1575 53.0182 80.2899C52.8764 82.8618 52.8658 85.4392 52.9865 88.0121C53.0182 88.6176 52.4172 89.307 52.4649 89.899C52.5442 90.8651 53.2904 91.7223 53.4219 92.6454C53.5036 93.2123 53.4673 93.8156 53.6101 94.3508C53.6499 94.5074 53.7093 94.6583 53.787 94.7999C53.787 94.8021 53.7893 94.8021 53.7893 94.8044C55.4222 97.7209 54.1408 96.3284 54.2928 96.9838L54.2202 97.002C54.1862 97.011 54.0819 97.0383 53.914 97.0768C52.9547 97.3059 48.9995 93.5933 46.3438 93.5933C44.7495 93.5933 40.529 96.215 39.1161 96.4055C37.998 96.5552 37.0001 96.6913 36.406 96.1674C36.2335 96.0146 36.1018 95.8213 36.0227 95.6049L36.0159 95.5845L36.0181 95.5641L36.0748 94.8044L36.1089 94.3508L36.5942 87.842C36.8652 87.5059 37.0365 87.1006 37.0886 86.672C37.1408 86.2434 37.0716 85.8088 36.889 85.4176L36.7892 85.2067L37.1566 80.2899L37.2247 79.3714L37.2496 79.0607V79.0584L37.4265 76.684L37.0001 75.3867V75.3845L36.1701 72.8581L35.7437 71.5586L35.4761 70.7421L35.458 70.6877C35.6008 70.0925 35.8021 69.5129 36.059 68.9573Z" fill="#1AA7FF"/>
<path id="Vector_21" d="M31.9217 92.4097L36.4937 80.5936L38.6172 76.279L34.5339 74.0232L31.2452 79.8175L29.0407 91.9237C28.6937 92.1606 28.4255 92.4959 28.2704 92.8864C28.1154 93.2769 28.0807 93.7048 28.1707 94.1152C28.2607 94.5256 28.4714 94.8997 28.7757 95.1895C29.0799 95.4793 29.4639 95.6714 29.8782 95.7413C30.2925 95.8112 30.7182 95.7557 31.1007 95.5818C31.4832 95.4078 31.8049 95.1235 32.0246 94.7654C32.2443 94.4072 32.3519 93.9916 32.3335 93.5718C32.3152 93.1521 32.1718 92.7474 31.9217 92.4097Z" fill="#9F616A"/>
<path id="Vector_22" d="M31.8301 76.1307L33.0003 75.3732L34.3452 72.8581L35.0392 71.5586L35.4769 70.7422L35.6628 70.3929L37.7652 68.9573L39.1849 67.9867L40.3415 68.9573L40.8926 69.42L40.3528 71.5586L40.0262 72.8581L39.3141 75.6771L37.2254 79.3715L36.7061 80.29L36.409 80.8184L36.4067 80.8229L36.3659 80.8932L31.0885 80.6732L30.9229 80.6664L30.9139 80.29L30.9093 80.1539C30.9071 80.0859 30.9071 80.0178 30.9071 79.9498C30.9078 78.6216 31.2241 77.3126 31.8301 76.1307Z" fill="#1AA7FF"/>
<path id="Vector_23" d="M71.7722 87.7107L62.4192 79.164L59.1686 75.6201L55.5853 78.6071L59.7921 83.7735L70.2742 90.2191C70.3691 90.6285 70.5842 91 70.8919 91.2862C71.1996 91.5723 71.5858 91.7599 72.0009 91.8249C72.416 91.8898 72.8411 91.8292 73.2215 91.6508C73.6018 91.4723 73.9202 91.1842 74.1356 90.8235C74.351 90.4628 74.4537 90.0459 74.4303 89.6263C74.407 89.2068 74.2588 88.8039 74.0047 88.4692C73.7507 88.1346 73.4023 87.8836 73.0045 87.7484C72.6067 87.6132 72.1775 87.6001 71.7722 87.7107Z" fill="#9F616A"/>
<path id="Vector_24" d="M52.4652 72.859L52.4833 71.5595L52.5173 68.9582L52.531 67.949L52.5695 67.9218C52.7807 67.7832 53.0201 67.6934 53.2703 67.6587C53.4903 67.6222 53.7148 67.6222 53.9348 67.6587C54.0507 67.6767 54.1652 67.7032 54.2772 67.7381C54.2795 67.7381 54.2795 67.7381 54.2818 67.7403C54.954 67.9817 55.5476 68.402 55.9985 68.9559L56.0008 68.9582C56.6809 69.7672 57.2838 70.6381 57.8015 71.5595C58.0578 71.9949 58.3027 72.4349 58.5318 72.859C59.3981 74.4714 60.0218 75.8684 60.0331 75.8934L62.623 79.2567L62.5868 79.3179L62.0175 80.2908L59.9311 83.8582L59.6 84.4252L58.754 83.9739C57.7679 83.4478 56.9905 82.6015 56.5496 81.5744L56.248 80.4224L56.1369 80.2908L53.2521 76.8436L52.4266 75.8548L52.4652 72.859Z" fill="#1AA7FF"/>
<path id="Vector_25" d="M42.5799 57.8585C42.1937 55.4784 43.81 53.2359 46.1901 52.8497C48.5701 52.4634 50.8126 54.0798 51.1989 56.4598C51.5851 58.8399 49.9688 61.0824 47.5887 61.4686C45.2087 61.8548 42.9661 60.2385 42.5799 57.8585Z" fill="#9F616A"/>
<path id="Vector_26" d="M51.1098 54.2968C51.3039 53.6177 51.6919 53.0355 51.4979 53.0355C51.3039 53.0355 51.2068 52.5504 51.2068 52.5504C51.2068 52.5504 51.0128 52.4534 50.9158 52.5504C50.8188 52.6475 50.7218 51.8713 50.7218 51.8713C50.7218 51.8713 50.6247 51.5803 50.5277 51.7743C50.4307 51.9683 50.4307 51.8713 50.3337 51.5803C50.2367 51.2892 49.7515 51.0952 49.7515 51.0952C49.7515 51.0952 47.9082 51.1922 47.6171 50.8041C47.3261 50.416 44.0274 50.7071 43.3483 51.1922C42.6692 51.6773 39.9935 52.5445 41.581 55.266C40.6739 56.8535 42.0282 59.6849 42.3781 60.0209C42.9315 60.5521 43.3146 60.7437 45.9329 61.2647C46.4453 61.3666 47.7043 57.0803 47.7043 57.0803C47.7043 57.0803 50.9158 54.9759 51.1098 54.2968Z" fill="#2F2E41"/>
<path id="Vector_27" d="M49.179 134.985L49.3196 134.928L51.8461 133.899L52.2339 133.742L53.8713 134.985H53.8736C54.7987 134.986 55.6856 135.354 56.3396 136.009C56.9935 136.663 57.3611 137.55 57.3616 138.475V138.589H48.3966V134.985H49.179Z" fill="#2F2E41"/>
<path id="Vector_28" d="M22.8288 138.745C22.8287 138.781 22.8355 138.816 22.849 138.849C22.8625 138.882 22.8823 138.912 22.9074 138.937C22.9325 138.962 22.9622 138.983 22.9951 138.996C23.0279 139.01 23.0631 139.017 23.0987 139.017H69.2048C69.2767 139.017 69.3456 138.989 69.3965 138.938C69.4473 138.887 69.4758 138.818 69.4758 138.746C69.4758 138.674 69.4473 138.606 69.3965 138.555C69.3456 138.504 69.2767 138.475 69.2048 138.475H23.0987C23.0272 138.476 22.9586 138.504 22.908 138.555C22.8575 138.605 22.829 138.674 22.8288 138.745Z" fill="#CCCCCC"/>
<path id="Vector_29" d="M70.429 0.233887C70.7858 6.57648 73.1173 12.6487 77.0969 17.6003C81.0766 22.5519 86.5052 26.1349 92.6226 27.8477C92.6294 28.0064 92.6362 28.1652 92.6384 28.3239C86.3943 26.6062 80.8475 22.9706 76.7811 17.9304C72.7146 12.8902 70.3341 6.70001 69.9754 0.233887H70.429Z" fill="white"/>
<path id="Vector_30" d="M77.3753 0.233887C78.4292 4.23823 80.2871 7.98619 82.8358 11.2496C85.3845 14.5129 88.5707 17.2235 92.2004 19.2161C92.214 19.3953 92.2231 19.5722 92.2322 19.7513C88.4704 17.7299 85.1672 14.9527 82.5297 11.594C79.8922 8.23531 77.9776 4.36768 76.9058 0.233887H77.3753Z" fill="white"/>
</g>
<defs>
<clipPath id="clip0_2240_304">
<rect width="92.0647" height="138.788" fill="white" transform="matrix(-1 0 0 1 92.864 0.233765)"/>
</clipPath>
</defs>
</svg>
