<svg width="17" height="10" viewBox="0 0 17 10" fill="none" xmlns="http://www.w3.org/2000/svg">
<path id="Vector" d="M8.41795 7.80927L15.1391 1.03432C15.2043 0.968113 15.2821 0.915799 15.3677 0.880474C15.4534 0.845148 15.5452 0.82753 15.6377 0.828662C15.7302 0.829793 15.8215 0.849653 15.9063 0.887063C15.9911 0.924474 16.0675 0.978674 16.1312 1.04645C16.2616 1.18509 16.3333 1.36959 16.331 1.56073C16.3288 1.75188 16.2528 1.9346 16.1192 2.07008L8.90096 9.34572C8.8362 9.41153 8.75908 9.46366 8.67412 9.49905C8.58916 9.53443 8.49807 9.55236 8.40616 9.5518C8.31426 9.55123 8.22338 9.53218 8.13886 9.49575C8.05433 9.45933 7.97785 9.40626 7.91388 9.33965L0.503282 1.68167C0.372129 1.54458 0.298828 1.36144 0.298828 1.17087C0.298828 0.980292 0.372129 0.797159 0.503282 0.660066C0.56773 0.59308 0.64484 0.539829 0.730045 0.503465C0.81525 0.467101 0.906818 0.448364 0.999327 0.448364C1.09184 0.448364 1.1834 0.467101 1.26861 0.503465C1.35381 0.539829 1.43092 0.59308 1.49537 0.660066L8.41795 7.80927Z" fill="black"/>
</svg>
